# AST/ASF file generated using VICON BodyLanguage
# -----------------------------------------------
:version 1.10
:name VICON
:units
  mass 1.0
  length 0.45
  angle deg
:documentation
   .ast/.asf automatically generated from VICON data using
   VICON BodyBuilder and BodyLanguage model FoxedUp or BRILLIANT.MOD
:root
   order TX TY TZ RX RY RZ
   axis XYZ
   position 0 0 0  
   orientation 0 0 0 
:bonedata
  begin
     id 1 
     name lhipjoint
     direction 0.610259 -0.730986 0.305356 
     length 2.50941 
     axis 0 0 0  XYZ
  end
  begin
     id 2 
     name lfemur
     direction 0.34202 -0.939693 0  
     length 7.48822  
     axis 0 0 20  XYZ
    dof rx ry rz
    limits (-160.0 20.0)
           (-70.0 70.0)
           (-60.0 70.0)
  end
  begin
     id 3 
     name ltibia
     direction 0.34202 -0.939693 0   
     length 7.60141   
     axis 0 0 20   XYZ
    dof rx
    limits (-10.0 170.0)
  end
  begin
     id 4 
     name lfoot
     direction 0.0673488 -0.185039 0.980421   
     length 2.04049   
     axis -90 7.62852e-016 20   XYZ
    dof rx rz
    limits (-45.0 90.0)
           (-70.0 20.0)
  end
  begin
     id 5 
     name ltoes
     direction 1.5356e-011 -4.21729e-011 1   
     length 1.02897   
     axis -90 7.62852e-016 20   XYZ
    dof rx
    limits (-90.0 20.0)
  end
  begin
     id 6 
     name rhipjoint
     direction -0.57612 -0.754205 0.315056   
     length 2.43216  
     axis 0 0 0  XYZ 
  end
  begin
     id 7 
     name rfemur
     direction -0.34202 -0.939693 0   
     length 7.42799   
     axis 0 0 -20   XYZ
    dof rx ry rz
    limits (-160.0 20.0)
           (-70.0 70.0)
           (-70.0 60.0)
  end
  begin
     id 8 
     name rtibia
     direction -0.34202 -0.939693 0   
     length 7.69484   
     axis 0 0 -20   XYZ
    dof rx
    limits (-10.0 170.0)
 end
 begin
     id 9 
     name rfoot
     direction -0.111837 -0.30727 0.945028   
     length 2.15769  
     axis -90 -7.62852e-016 -20   XYZ
    dof rx rz
    limits (-45.0 90.0)
           (-20.0 70.0)
  end
  begin
     id 10 
     name rtoes
     direction -1.53539e-011 -4.21878e-011 1   
     length 1.07391   
     axis -90 -7.62852e-016 -20   XYZ
    dof rx
    limits (-90.0 20.0)
  end
  begin
     id 11 
     name lowerback
     direction 0.00552624 0.990109 -0.140195   
     length 2.12403   
     axis 0 0 0   XYZ
    dof rx ry rz
    limits (-20.0 45.0)
           (-30.0 30.0)
           (-30.0 30.0)
  end
  begin
     id 12 
     name upperback
     direction 0.00361898 0.999976 -0.00584723   
     length 2.13232   
     axis 0 0 0   XYZ
    dof rx ry rz
    limits (-20.0 45.0)
           (-30.0 30.0)
           (-30.0 30.0)
  end
  begin
     id 13 
     name thorax
     direction -0.000331275 0.998253 0.0590847   
     length 2.17688   
     axis 0 0 0   XYZ
    dof rx ry rz
    limits (-20.0 45.0)
           (-30.0 30.0)
           (-30.0 30.0)
  end
  begin
     id 14 
     name lowerneck
     direction -0.0561561 0.979832 0.19177   
     length 1.64159   
     axis 0 0 0   XYZ
    dof rx ry rz
    limits (-20.0 45.0)
           (-30.0 30.0)
           (-30.0 30.0)
  end
  begin
     id 15 
     name upperneck
     direction 0.0827153 0.979385 -0.184293   
     length 1.68939   
     axis 0 0 0   XYZ
    dof rx ry rz
    limits (-20.0 45.0)
           (-30.0 30.0)
           (-30.0 30.0)
  end
  begin
     id 16
     name head
     direction 0.0278583 0.995936 -0.0856488  
     length 1.70207  
     axis 0 0 0   XYZ
    dof rx ry rz
    limits (-20.0 45.0)
           (-30.0 30.0)
           (-30.0 30.0)
  end
  begin
     id 17 
     name lclavicle
     direction 0.950993 0.301131 -0.0702275  
     length 3.41652  
     axis 0 0 0   XYZ
    dof ry rz
    limits (-20.0 10.0)
           (0.0 20.0)
  end
  begin
     id 18 
     name lhumerus
     direction 1 -4.48981e-011 -3.9662e-029   
     length 5.32955   
     axis 180 -30 -90   XYZ
    dof rx ry rz
    limits (-60.0 90.0)
           (-90.0 90.0)
           (-90.0 90.0)
  end
  begin
     id 19
     name lradius
     direction 1 -4.48925e-011 -9.0549e-027   
     length 3.69232   
     axis 180 -30 -90   XYZ
    dof rx
    limits (-10.0 170.0)
  end
  begin
     id 20
     name lwrist
     direction 1 -4.49007e-011 -1.49005e-026   
     length 1.84616   
     axis 9.0955e-015 90 90   XYZ
    dof ry
    limits (-180.0 0.0)
 end
  begin
     id 21 
     name lhand
     direction 1 -4.49016e-011 -2.98023e-026   
     length 0.536598   
     axis 1.90115e-014 90 90   XYZ
    dof rx rz
    limits (-90.0 90.0)
           (-45.0 45.0)
  end
  begin
     id 22 
     name lfingers
     direction 1 -4.48924e-011 -5.9578e-026   
     length 0.432619   
     axis 3.80223e-014 90 90   XYZ
    dof rx
    limits (0.0 90.0)
  end
  begin
     id 23
     name lthumb
     direction 0.707107 -6.34947e-011 0.707107   
     length 0.621157   
     axis -90 45 -3.84942e-014   XYZ
    dof rx rz
    limits (-45.0 45.0)
           (-45.0 45.0)
  end
  begin
     id 24 
     name rclavicle
     direction -0.955495 0.276497 -0.102848   
     length 3.36357  
     axis 0 0 0   XYZ 
    dof ry rz
    limits (-10.0 20.0)
           (-20.0 0.0)
  end
  begin
     id 25 
     name rhumerus
     direction -1 -4.48961e-011 3.30983e-027  
     length 5.23431   
     axis 180 30 90   XYZ
    dof rx ry rz
    limits (-90.0 60.0)
           (-90.0 90.0)
           (-90.0 90.0)
  end
  begin
     id 26 
     name rradius
     direction -1 -4.48965e-011 -6.63263e-027   
     length 3.55301   
     axis 180 30 90   XYZ
    dof rx
    limits (-10.0 170.0)
  end
  begin
     id 27 
     name rwrist
     direction -1 -4.48942e-011 -1.48958e-026   
     length 1.77651   
     axis 9.0955e-015 -90 -90   XYZ
    dof ry
    limits (-180.0 0.0)
  end
  begin
     id 28
     name rhand
     direction -1 -4.48977e-011 -2.97966e-026   
     length 0.772522   
     axis 1.90115e-014 -90 -90   XYZ
    dof rx rz
    limits (-90.0 90.0)
           (-45.0 45.0)
  end
  begin
     id 29
     name rfingers
     direction -1 -4.49135e-011 -5.96389e-026   
     length 0.622827   
     axis 3.80223e-014 -90 -90   XYZ
    dof rx
    limits (0.0 90.0)
  end
  begin
     id 30
     name rthumb
     direction -0.707107 -6.34969e-011 0.707107   
     length 0.894259   
     axis -90 -45 3.84942e-014   XYZ
    dof rx rz
    limits (-45.0 45.0)
           (-45.0 45.0)
  end
:hierarchy
  begin
    root lhipjoint rhipjoint lowerback
    lhipjoint lfemur
    lfemur ltibia
    ltibia lfoot
    lfoot ltoes
    rhipjoint rfemur
    rfemur rtibia
    rtibia rfoot
    rfoot rtoes
    lowerback upperback
    upperback thorax
    thorax lowerneck lclavicle rclavicle
    lowerneck upperneck
    upperneck head
    lclavicle lhumerus
    lhumerus lradius
    lradius lwrist
    lwrist lhand lthumb
    lhand lfingers
    rclavicle rhumerus
    rhumerus rradius
    rradius rwrist
    rwrist rhand rthumb
    rhand rfingers
  end

#!OML:ASF F:\VICON\USERDATA\INSTALL\rory3\rory3.ASF
:FULLY-SPECIFIED
:DEGREES
497
root -1.66245 17.6204 15.636 -181.216 -21.1492 176.339
lowerback 13.6118 1.67209 -1.22265
upperback 2.14704 1.9134 1.31853
thorax -5.45117 0.886739 1.74039
lowerneck -15.742 3.94681 -10.1384
upperneck 41.7856 3.70604 4.78744
head 17.7838 -0.761886 4.33715
rclavicle -3.38928e-014 7.95139e-015
rhumerus -37.624 -18.3454 -71.5196
rradius 35.5064
rwrist 7.2152
rhand -14.6798 11.9697
rfingers 7.12502
rthumb 11.4736 -17.6964
lclavicle -3.38928e-014 7.95139e-015
lhumerus -34.425 9.32868 79.5665
lradius 38.6868
lwrist -0.991999
lhand -19.7754 22.4465
lfingers 7.12502
lthumb 6.55665 52.325
rfemur -7.72306 7.2682 4.29278
rtibia 40.4316
rfoot -17.5309 -1.64665
rtoes -4.84004
lfemur -2.35105 -6.63035 -19.4764
ltibia 22.4651
lfoot -15.1348 -6.7001
ltoes -15.4621
498
root -1.72 17.6273 15.6637 -181.28 -21.1854 176.493
lowerback 13.634 1.6708 -1.28579
upperback 2.07924 1.90941 1.35366
thorax -5.53824 0.889271 1.81258
lowerneck -15.5115 3.97308 -10.0865
upperneck 41.7462 3.69048 4.74731
head 17.7038 -0.768409 4.29443
rclavicle 1.25234e-014 6.36111e-015
rhumerus -37.9416 -18.2434 -71.6915
rradius 35.4447
rwrist 7.86543
rhand -14.3715 12.2882
rfingers 7.12502
rthumb 11.7709 -17.361
lclavicle 1.25234e-014 6.36111e-015
lhumerus -34.5026 9.2495 79.3031
lradius 39.0204
lwrist -0.748836
lhand -19.6547 21.8489
lfingers 7.12502
lthumb 6.67314 51.7237
rfemur -8.18561 6.39621 5.11039
rtibia 41.2266
rfoot -18.3121 -0.692996
rtoes -5.56893
lfemur -2.4336 -6.57002 -19.5337
ltibia 22.5809
lfoot -15.101 -6.81823
ltoes -14.4827
499
root -1.77265 17.6282 15.6855 -181.3 -21.287 176.442
lowerback 13.6321 1.67875 -1.57218
upperback 2.05788 1.87953 1.32667
thorax -5.56704 0.88169 1.95133
lowerneck -15.4701 3.98128 -10.0973
upperneck 41.7876 3.62704 4.88415
head 17.7162 -0.783721 4.34891
rclavicle 3.34952e-014 0
rhumerus -38.2051 -18.2858 -71.8764
rradius 35.3878
rwrist 8.4201
rhand -14.1671 12.7081
rfingers 7.12502
rthumb 11.968 -16.9298
lclavicle 3.34952e-014 0
lhumerus -34.5106 9.1925 78.9888
lradius 39.3467
lwrist -0.461757
lhand -19.3928 21.5505
lfingers 7.12502
lthumb 6.92598 51.4172
rfemur -8.50426 5.43173 5.7544
rtibia 41.993
rfoot -19.1559 0.0102614
rtoes -6.73026
lfemur -2.45397 -6.61152 -19.8024
ltibia 22.6536
lfoot -15.0485 -6.89732
ltoes -13.6292
500
root -1.82115 17.6312 15.702 -181.423 -21.5093 176.487
lowerback 13.6358 1.62233 -1.81753
upperback 2.13162 1.76488 1.35687
thorax -5.49431 0.826888 2.14398
lowerneck -15.6236 3.97381 -10.1028
upperneck 41.7779 3.64163 4.92797
head 17.7475 -0.766755 4.3795
rclavicle 9.93923e-016 4.92986e-014
rhumerus -38.2516 -18.1683 -72.1758
rradius 35.4181
rwrist 8.79489
rhand -13.7764 12.3168
rfingers 7.12502
rthumb 12.3447 -17.2988
lclavicle 9.93923e-016 4.92986e-014
lhumerus -34.43 9.24806 78.691
lradius 39.7086
lwrist -0.279438
lhand -19.36 22.5926
lfingers 7.12502
lthumb 6.95768 52.4582
rfemur -8.64525 4.46098 6.58174
rtibia 42.7173
rfoot -19.9578 0.352563
rtoes -7.33278
lfemur -2.36137 -6.74855 -19.9603
ltibia 22.7134
lfoot -15.0775 -6.97355
ltoes -13.224
501
root -1.86926 17.6372 15.719 -181.563 -21.7039 176.664
lowerback 13.5874 1.55905 -1.92804
upperback 2.21892 1.66294 1.42802
thorax -5.37548 0.774686 2.30202
lowerneck -15.7758 3.9306 -10.1675
upperneck 41.694 3.66223 4.91474
head 17.7368 -0.75528 4.39236
rclavicle -3.16068e-014 1.51076e-014
rhumerus -38.2059 -18.0025 -72.4849
rradius 35.368
rwrist 9.01085
rhand -13.5212 11.9512
rfingers 7.12502
rthumb 12.5908 -17.6494
lclavicle -3.16068e-014 1.51076e-014
lhumerus -34.2882 9.54269 78.4053
lradius 39.9485
lwrist -0.247724
lhand -19.5354 23.4923
lfingers 7.12502
lthumb 6.78831 53.3634
rfemur -8.86359 3.45263 7.57033
rtibia 43.3973
rfoot -20.5689 0.384463
rtoes -7.85368
lfemur -2.30362 -6.75759 -19.9532
ltibia 22.7968
lfoot -15.1297 -7.20771
ltoes -12.4811
502
root -1.91798 17.6426 15.7376 -181.632 -21.8399 176.796
lowerback 13.5346 1.50462 -2.0733
upperback 2.24698 1.57186 1.47842
thorax -5.31718 0.731402 2.45512
lowerneck -15.7932 3.90728 -10.226
upperneck 41.5686 3.66659 4.94586
head 17.6652 -0.741547 4.41455
rclavicle -7.05686e-015 -2.38542e-015
rhumerus -38.2368 -17.9288 -72.7121
rradius 35.2445
rwrist 9.13484
rhand -13.4532 12.273
rfingers 7.12502
rthumb 12.6563 -17.3235
lclavicle -7.05686e-015 -2.38542e-015
lhumerus -34.1923 9.79151 78.1326
lradius 40.0989
lwrist -0.0961622
lhand -19.8662 23.6695
lfingers 7.12502
lthumb 6.469 53.5507
rfemur -9.14732 2.31126 8.50874
rtibia 44.0404
rfoot -21.1331 0.123795
rtoes -9.17778
lfemur -2.34538 -6.73449 -20.0014
ltibia 22.9004
lfoot -15.1492 -7.39502
ltoes -11.4732
503
root -1.96646 17.6459 15.7568 -181.693 -22.0559 176.823
lowerback 13.5665 1.43181 -2.30006
upperback 2.24668 1.44296 1.49798
thorax -5.33365 0.672432 2.6274
lowerneck -15.7832 3.92898 -10.1584
upperneck 41.5121 3.69261 4.92979
head 17.6288 -0.715893 4.39698
rclavicle 3.42904e-014 -1.66979e-014
rhumerus -38.3755 -17.7937 -72.9458
rradius 35.28
rwrist 9.13814
rhand -13.436 12.3253
rfingers 7.12502
rthumb 12.6729 -17.2702
lclavicle 3.42904e-014 -1.66979e-014
lhumerus -34.1985 9.9544 77.867
lradius 40.3025
lwrist 0.0914448
lhand -20.0349 23.6763
lfingers 7.12502
lthumb 6.30617 53.5624
rfemur -9.30034 1.00101 9.34282
rtibia 44.6332
rfoot -21.7988 -0.1662
rtoes -10.0172
lfemur -2.43412 -6.63394 -20.1566
ltibia 23.0781
lfoot -15.1661 -7.59783
ltoes -10.8601
